<mxfile host="Electron" agent="Mozilla/5.0 (Windows NT 10.0; Win64; x64) AppleWebKit/537.36 (KHTML, like Gecko) draw.io/27.0.9 Chrome/134.0.6998.205 Electron/35.4.0 Safari/537.36" version="27.0.9">
  <diagram name="brainstorming" id="template1">
    <mxGraphModel dx="1615" dy="481" grid="0" gridSize="10" guides="1" tooltips="1" connect="1" arrows="1" fold="1" page="0" pageScale="1" pageWidth="827" pageHeight="1169" math="0" shadow="0">
      <root>
        <mxCell id="0" />
        <mxCell id="1" parent="0" />
        <mxCell id="TzZnzp-j8TeUf-pY2IYi-2" value="Official 3Sapiens Coordinator Node" style="text;html=1;align=center;verticalAlign=middle;whiteSpace=wrap;rounded=0;glass=0;" vertex="1" parent="1">
          <mxGeometry x="-345.25" y="74" width="133.5" height="30" as="geometry" />
        </mxCell>
        <mxCell id="TzZnzp-j8TeUf-pY2IYi-3" value="" style="endArrow=none;html=1;rounded=0;" edge="1" parent="1">
          <mxGeometry width="50" height="50" relative="1" as="geometry">
            <mxPoint x="-88" y="279" as="sourcePoint" />
            <mxPoint x="-558" y="279" as="targetPoint" />
          </mxGeometry>
        </mxCell>
        <mxCell id="TzZnzp-j8TeUf-pY2IYi-4" value="Global Tick" style="text;html=1;align=center;verticalAlign=middle;resizable=0;points=[];autosize=1;strokeColor=none;fillColor=none;" vertex="1" parent="1">
          <mxGeometry x="-426" y="284" width="77" height="26" as="geometry" />
        </mxCell>
      </root>
    </mxGraphModel>
  </diagram>
</mxfile>
